<mxfile host="app.diagrams.net" agent="Mozilla/5.0 (Windows NT 10.0; Win64; x64) AppleWebKit/537.36 (KHTML, like Gecko) Chrome/135.0.0.0 Safari/537.36" version="26.2.15">
  <diagram name="Page-1" id="wJB_1sEkdE1gypnpAlLO">
    <mxGraphModel dx="1687" dy="1523" grid="1" gridSize="10" guides="1" tooltips="1" connect="1" arrows="1" fold="1" page="1" pageScale="1" pageWidth="850" pageHeight="1100" math="0" shadow="0">
      <root>
        <mxCell id="0" />
        <mxCell id="1" parent="0" />
        <mxCell id="SE2F5Cg17-JC0wOhKJ6e-55" value="" style="rounded=0;whiteSpace=wrap;html=1;dashed=1;dashPattern=8 8;" parent="1" vertex="1">
          <mxGeometry x="-650" y="-840" width="680" height="530" as="geometry" />
        </mxCell>
        <mxCell id="SE2F5Cg17-JC0wOhKJ6e-50" value="" style="rounded=0;whiteSpace=wrap;html=1;dashed=1;fillColor=#f5f5f5;fontColor=#333333;strokeColor=#666666;" parent="1" vertex="1">
          <mxGeometry x="-510" y="-700" width="510" height="220" as="geometry" />
        </mxCell>
        <mxCell id="SE2F5Cg17-JC0wOhKJ6e-26" value="" style="endArrow=classic;html=1;rounded=0;entryX=0.091;entryY=0.99;entryDx=0;entryDy=0;entryPerimeter=0;exitX=1;exitY=0.5;exitDx=0;exitDy=0;" parent="1" source="SE2F5Cg17-JC0wOhKJ6e-27" target="SE2F5Cg17-JC0wOhKJ6e-11" edge="1">
          <mxGeometry width="50" height="50" relative="1" as="geometry">
            <mxPoint x="-370" y="-330" as="sourcePoint" />
            <mxPoint x="-310" y="-380" as="targetPoint" />
            <Array as="points">
              <mxPoint x="-320" y="-340" />
            </Array>
          </mxGeometry>
        </mxCell>
        <mxCell id="SE2F5Cg17-JC0wOhKJ6e-19" value="" style="shape=corner;whiteSpace=wrap;html=1;direction=north;" parent="1" vertex="1">
          <mxGeometry x="-360" y="-480" width="80" height="100" as="geometry" />
        </mxCell>
        <mxCell id="SE2F5Cg17-JC0wOhKJ6e-20" value="" style="shape=corner;whiteSpace=wrap;html=1;direction=west;" parent="1" vertex="1">
          <mxGeometry x="-280" y="-480" width="100" height="100" as="geometry" />
        </mxCell>
        <mxCell id="SE2F5Cg17-JC0wOhKJ6e-21" value="" style="rounded=0;whiteSpace=wrap;html=1;glass=0;fillColor=default;strokeColor=none;rotation=0;" parent="1" vertex="1">
          <mxGeometry x="-309" y="-399.5" width="60" height="19.1" as="geometry" />
        </mxCell>
        <mxCell id="7dEdvDVYnRS8Il21OIbk-3" value="Algorithm" style="text;html=1;align=center;verticalAlign=middle;whiteSpace=wrap;rounded=0;" parent="1" vertex="1">
          <mxGeometry x="-240" y="-140" width="60" height="30" as="geometry" />
        </mxCell>
        <mxCell id="7dEdvDVYnRS8Il21OIbk-6" value="Convert to RTL" style="rounded=1;whiteSpace=wrap;html=1;" parent="1" vertex="1">
          <mxGeometry x="-270" y="30" width="120" height="60" as="geometry" />
        </mxCell>
        <mxCell id="7dEdvDVYnRS8Il21OIbk-7" value="" style="endArrow=classic;html=1;rounded=0;exitX=0.5;exitY=1;exitDx=0;exitDy=0;" parent="1" source="7dEdvDVYnRS8Il21OIbk-6" target="7dEdvDVYnRS8Il21OIbk-8" edge="1">
          <mxGeometry width="50" height="50" relative="1" as="geometry">
            <mxPoint x="-160" y="110" as="sourcePoint" />
            <mxPoint x="-210" y="150" as="targetPoint" />
          </mxGeometry>
        </mxCell>
        <mxCell id="7dEdvDVYnRS8Il21OIbk-8" value="RTL Description" style="text;html=1;align=center;verticalAlign=middle;whiteSpace=wrap;rounded=0;" parent="1" vertex="1">
          <mxGeometry x="-240" y="135" width="60" height="30" as="geometry" />
        </mxCell>
        <mxCell id="7dEdvDVYnRS8Il21OIbk-10" value="" style="endArrow=classic;html=1;rounded=0;exitX=0.5;exitY=1;exitDx=0;exitDy=0;" parent="1" source="7dEdvDVYnRS8Il21OIbk-8" edge="1">
          <mxGeometry width="50" height="50" relative="1" as="geometry">
            <mxPoint x="-160" y="110" as="sourcePoint" />
            <mxPoint x="-210" y="220" as="targetPoint" />
          </mxGeometry>
        </mxCell>
        <mxCell id="7dEdvDVYnRS8Il21OIbk-11" value="Check directed test-bench" style="rounded=1;whiteSpace=wrap;html=1;" parent="1" vertex="1">
          <mxGeometry x="-270" y="220" width="120" height="60" as="geometry" />
        </mxCell>
        <mxCell id="7dEdvDVYnRS8Il21OIbk-12" value="" style="endArrow=classic;html=1;rounded=0;exitX=0.5;exitY=1;exitDx=0;exitDy=0;" parent="1" source="7dEdvDVYnRS8Il21OIbk-11" edge="1">
          <mxGeometry width="50" height="50" relative="1" as="geometry">
            <mxPoint x="-170" y="360" as="sourcePoint" />
            <mxPoint x="-210" y="330" as="targetPoint" />
          </mxGeometry>
        </mxCell>
        <mxCell id="7dEdvDVYnRS8Il21OIbk-13" value="true" style="text;html=1;align=center;verticalAlign=middle;whiteSpace=wrap;rounded=0;" parent="1" vertex="1">
          <mxGeometry x="-210" y="290" width="60" height="30" as="geometry" />
        </mxCell>
        <mxCell id="7dEdvDVYnRS8Il21OIbk-14" value="" style="endArrow=classic;html=1;rounded=0;exitX=0;exitY=0.5;exitDx=0;exitDy=0;" parent="1" source="7dEdvDVYnRS8Il21OIbk-11" edge="1">
          <mxGeometry width="50" height="50" relative="1" as="geometry">
            <mxPoint x="-160" y="110" as="sourcePoint" />
            <mxPoint x="-271" y="60" as="targetPoint" />
            <Array as="points">
              <mxPoint x="-350" y="250" />
              <mxPoint x="-350" y="60" />
            </Array>
          </mxGeometry>
        </mxCell>
        <mxCell id="7dEdvDVYnRS8Il21OIbk-15" value="false" style="text;html=1;align=center;verticalAlign=middle;whiteSpace=wrap;rounded=0;" parent="1" vertex="1">
          <mxGeometry x="-330" y="220" width="60" height="30" as="geometry" />
        </mxCell>
        <mxCell id="7dEdvDVYnRS8Il21OIbk-16" value="Is top module ?" style="rounded=1;whiteSpace=wrap;html=1;" parent="1" vertex="1">
          <mxGeometry x="-270" y="330" width="120" height="60" as="geometry" />
        </mxCell>
        <mxCell id="7dEdvDVYnRS8Il21OIbk-17" value="" style="endArrow=classic;html=1;rounded=0;exitX=1;exitY=0.5;exitDx=0;exitDy=0;entryX=1;entryY=0.5;entryDx=0;entryDy=0;" parent="1" source="7dEdvDVYnRS8Il21OIbk-16" target="7dEdvDVYnRS8Il21OIbk-6" edge="1">
          <mxGeometry width="50" height="50" relative="1" as="geometry">
            <mxPoint x="-130" y="210" as="sourcePoint" />
            <mxPoint x="-80" y="160" as="targetPoint" />
            <Array as="points">
              <mxPoint x="-90" y="360" />
              <mxPoint x="-90" y="60" />
            </Array>
          </mxGeometry>
        </mxCell>
        <mxCell id="7dEdvDVYnRS8Il21OIbk-18" value="sub-module" style="text;html=1;align=center;verticalAlign=middle;whiteSpace=wrap;rounded=0;" parent="1" vertex="1">
          <mxGeometry x="-80" y="165" width="60" height="30" as="geometry" />
        </mxCell>
        <mxCell id="7dEdvDVYnRS8Il21OIbk-19" value="" style="endArrow=classic;html=1;rounded=0;exitX=0.5;exitY=1;exitDx=0;exitDy=0;" parent="1" source="7dEdvDVYnRS8Il21OIbk-16" edge="1">
          <mxGeometry width="50" height="50" relative="1" as="geometry">
            <mxPoint x="-120" y="380" as="sourcePoint" />
            <mxPoint x="-210" y="420" as="targetPoint" />
          </mxGeometry>
        </mxCell>
        <mxCell id="7dEdvDVYnRS8Il21OIbk-20" value="Check layered test-bench" style="rounded=1;whiteSpace=wrap;html=1;" parent="1" vertex="1">
          <mxGeometry x="-270" y="420" width="120" height="60" as="geometry" />
        </mxCell>
        <mxCell id="7dEdvDVYnRS8Il21OIbk-21" value="" style="endArrow=classic;html=1;rounded=0;exitX=0;exitY=0.5;exitDx=0;exitDy=0;entryX=0;entryY=0.5;entryDx=0;entryDy=0;" parent="1" source="7dEdvDVYnRS8Il21OIbk-20" target="7dEdvDVYnRS8Il21OIbk-6" edge="1">
          <mxGeometry width="50" height="50" relative="1" as="geometry">
            <mxPoint x="-110" y="350" as="sourcePoint" />
            <mxPoint x="-60" y="300" as="targetPoint" />
            <Array as="points">
              <mxPoint x="-400" y="450" />
              <mxPoint x="-400" y="60" />
            </Array>
          </mxGeometry>
        </mxCell>
        <mxCell id="7dEdvDVYnRS8Il21OIbk-27" value="Specification" style="rounded=1;whiteSpace=wrap;html=1;" parent="1" vertex="1">
          <mxGeometry x="-270" y="-80" width="120" height="60" as="geometry" />
        </mxCell>
        <mxCell id="7dEdvDVYnRS8Il21OIbk-28" value="" style="endArrow=classic;html=1;rounded=0;exitX=0.5;exitY=1;exitDx=0;exitDy=0;entryX=0.5;entryY=0;entryDx=0;entryDy=0;" parent="1" source="7dEdvDVYnRS8Il21OIbk-3" target="7dEdvDVYnRS8Il21OIbk-27" edge="1">
          <mxGeometry width="50" height="50" relative="1" as="geometry">
            <mxPoint x="-80" y="30" as="sourcePoint" />
            <mxPoint x="-30" y="-20" as="targetPoint" />
          </mxGeometry>
        </mxCell>
        <mxCell id="7dEdvDVYnRS8Il21OIbk-29" value="" style="endArrow=classic;html=1;rounded=0;exitX=0.5;exitY=1;exitDx=0;exitDy=0;entryX=0.5;entryY=0;entryDx=0;entryDy=0;" parent="1" source="7dEdvDVYnRS8Il21OIbk-27" target="7dEdvDVYnRS8Il21OIbk-6" edge="1">
          <mxGeometry width="50" height="50" relative="1" as="geometry">
            <mxPoint x="-80" y="30" as="sourcePoint" />
            <mxPoint x="-30" y="-20" as="targetPoint" />
          </mxGeometry>
        </mxCell>
        <mxCell id="7dEdvDVYnRS8Il21OIbk-42" value="" style="endArrow=classic;html=1;rounded=0;exitX=0.5;exitY=1;exitDx=0;exitDy=0;" parent="1" source="7dEdvDVYnRS8Il21OIbk-20" edge="1">
          <mxGeometry width="50" height="50" relative="1" as="geometry">
            <mxPoint x="170" y="330" as="sourcePoint" />
            <mxPoint x="40" y="40" as="targetPoint" />
            <Array as="points">
              <mxPoint x="-210" y="500" />
              <mxPoint x="40" y="500" />
            </Array>
          </mxGeometry>
        </mxCell>
        <mxCell id="7dEdvDVYnRS8Il21OIbk-43" value="Logic synthesis" style="rounded=1;whiteSpace=wrap;html=1;" parent="1" vertex="1">
          <mxGeometry x="-20" y="-20" width="120" height="60" as="geometry" />
        </mxCell>
        <mxCell id="7dEdvDVYnRS8Il21OIbk-46" value="" style="endArrow=classic;html=1;rounded=0;exitX=0.5;exitY=0;exitDx=0;exitDy=0;entryX=1;entryY=0.5;entryDx=0;entryDy=0;" parent="1" source="7dEdvDVYnRS8Il21OIbk-43" target="7dEdvDVYnRS8Il21OIbk-27" edge="1">
          <mxGeometry width="50" height="50" relative="1" as="geometry">
            <mxPoint x="60" y="-40" as="sourcePoint" />
            <mxPoint x="110" y="-90" as="targetPoint" />
            <Array as="points">
              <mxPoint x="40" y="-50" />
            </Array>
          </mxGeometry>
        </mxCell>
        <mxCell id="7dEdvDVYnRS8Il21OIbk-47" value="optimize" style="text;html=1;align=center;verticalAlign=middle;whiteSpace=wrap;rounded=0;" parent="1" vertex="1">
          <mxGeometry x="-50" y="-80" width="60" height="30" as="geometry" />
        </mxCell>
        <mxCell id="7dEdvDVYnRS8Il21OIbk-48" value="IP packaging" style="rounded=1;whiteSpace=wrap;html=1;" parent="1" vertex="1">
          <mxGeometry x="150" y="20" width="120" height="60" as="geometry" />
        </mxCell>
        <mxCell id="7dEdvDVYnRS8Il21OIbk-49" value="" style="endArrow=classic;html=1;rounded=0;exitX=0.5;exitY=1;exitDx=0;exitDy=0;" parent="1" source="7dEdvDVYnRS8Il21OIbk-48" edge="1">
          <mxGeometry width="50" height="50" relative="1" as="geometry">
            <mxPoint x="120" y="120" as="sourcePoint" />
            <mxPoint x="210" y="120" as="targetPoint" />
          </mxGeometry>
        </mxCell>
        <mxCell id="7dEdvDVYnRS8Il21OIbk-50" value="Block design and generate bitstream" style="rounded=1;whiteSpace=wrap;html=1;" parent="1" vertex="1">
          <mxGeometry x="150" y="120" width="120" height="60" as="geometry" />
        </mxCell>
        <mxCell id="7dEdvDVYnRS8Il21OIbk-51" value="" style="endArrow=classic;html=1;rounded=0;exitX=0.5;exitY=1;exitDx=0;exitDy=0;" parent="1" source="7dEdvDVYnRS8Il21OIbk-50" edge="1">
          <mxGeometry width="50" height="50" relative="1" as="geometry">
            <mxPoint x="210" y="200" as="sourcePoint" />
            <mxPoint x="210" y="220" as="targetPoint" />
          </mxGeometry>
        </mxCell>
        <mxCell id="7dEdvDVYnRS8Il21OIbk-52" value="SW coding and check with golden model" style="rounded=1;whiteSpace=wrap;html=1;" parent="1" vertex="1">
          <mxGeometry x="150" y="220" width="120" height="60" as="geometry" />
        </mxCell>
        <mxCell id="7dEdvDVYnRS8Il21OIbk-53" value="" style="curved=1;endArrow=classic;html=1;rounded=0;entryX=1.017;entryY=0.12;entryDx=0;entryDy=0;entryPerimeter=0;" parent="1" target="7dEdvDVYnRS8Il21OIbk-52" edge="1">
          <mxGeometry width="50" height="50" relative="1" as="geometry">
            <mxPoint x="270" y="270" as="sourcePoint" />
            <mxPoint x="330" y="220" as="targetPoint" />
            <Array as="points">
              <mxPoint x="310" y="240" />
            </Array>
          </mxGeometry>
        </mxCell>
        <mxCell id="7dEdvDVYnRS8Il21OIbk-54" value="" style="endArrow=classic;html=1;rounded=0;exitX=0.5;exitY=1;exitDx=0;exitDy=0;" parent="1" source="7dEdvDVYnRS8Il21OIbk-52" edge="1">
          <mxGeometry width="50" height="50" relative="1" as="geometry">
            <mxPoint x="210" y="240" as="sourcePoint" />
            <mxPoint x="210" y="310" as="targetPoint" />
          </mxGeometry>
        </mxCell>
        <mxCell id="7dEdvDVYnRS8Il21OIbk-55" value="pass" style="text;html=1;align=center;verticalAlign=middle;whiteSpace=wrap;rounded=0;" parent="1" vertex="1">
          <mxGeometry x="180" y="310" width="60" height="30" as="geometry" />
        </mxCell>
        <mxCell id="7dEdvDVYnRS8Il21OIbk-56" value="" style="endArrow=classic;html=1;rounded=0;exitX=1;exitY=0.5;exitDx=0;exitDy=0;entryX=0.501;entryY=-0.022;entryDx=0;entryDy=0;entryPerimeter=0;" parent="1" source="7dEdvDVYnRS8Il21OIbk-43" target="7dEdvDVYnRS8Il21OIbk-48" edge="1">
          <mxGeometry width="50" height="50" relative="1" as="geometry">
            <mxPoint x="110" y="270" as="sourcePoint" />
            <mxPoint x="160" y="220" as="targetPoint" />
            <Array as="points">
              <mxPoint x="210" y="10" />
            </Array>
          </mxGeometry>
        </mxCell>
        <mxCell id="SE2F5Cg17-JC0wOhKJ6e-2" value="Transaction" style="rounded=1;whiteSpace=wrap;html=1;" parent="1" vertex="1">
          <mxGeometry x="-460" y="-780" width="120" height="60" as="geometry" />
        </mxCell>
        <mxCell id="SE2F5Cg17-JC0wOhKJ6e-3" value="" style="endArrow=classic;html=1;rounded=0;exitX=0.5;exitY=1;exitDx=0;exitDy=0;" parent="1" source="SE2F5Cg17-JC0wOhKJ6e-2" edge="1">
          <mxGeometry width="50" height="50" relative="1" as="geometry">
            <mxPoint x="-260" y="-550" as="sourcePoint" />
            <mxPoint x="-400" y="-660" as="targetPoint" />
          </mxGeometry>
        </mxCell>
        <mxCell id="SE2F5Cg17-JC0wOhKJ6e-4" value="Generator" style="rounded=1;whiteSpace=wrap;html=1;fillColor=#dae8fc;strokeColor=#6c8ebf;" parent="1" vertex="1">
          <mxGeometry x="-460" y="-660" width="120" height="60" as="geometry" />
        </mxCell>
        <mxCell id="SE2F5Cg17-JC0wOhKJ6e-5" value="transaction" style="text;html=1;align=center;verticalAlign=middle;whiteSpace=wrap;rounded=0;" parent="1" vertex="1">
          <mxGeometry x="-400" y="-700" width="60" height="30" as="geometry" />
        </mxCell>
        <mxCell id="SE2F5Cg17-JC0wOhKJ6e-6" value="Driver" style="rounded=1;whiteSpace=wrap;html=1;fillColor=#dae8fc;strokeColor=#6c8ebf;" parent="1" vertex="1">
          <mxGeometry x="-460" y="-560" width="120" height="60" as="geometry" />
        </mxCell>
        <mxCell id="SE2F5Cg17-JC0wOhKJ6e-7" value="" style="endArrow=classic;html=1;rounded=0;exitX=0.5;exitY=1;exitDx=0;exitDy=0;entryX=0.5;entryY=0;entryDx=0;entryDy=0;" parent="1" source="SE2F5Cg17-JC0wOhKJ6e-4" target="SE2F5Cg17-JC0wOhKJ6e-6" edge="1">
          <mxGeometry width="50" height="50" relative="1" as="geometry">
            <mxPoint x="-250" y="-540" as="sourcePoint" />
            <mxPoint x="-200" y="-590" as="targetPoint" />
          </mxGeometry>
        </mxCell>
        <mxCell id="SE2F5Cg17-JC0wOhKJ6e-8" value="mailbox #(transaction)" style="text;html=1;align=center;verticalAlign=middle;whiteSpace=wrap;rounded=0;" parent="1" vertex="1">
          <mxGeometry x="-390" y="-590" width="60" height="30" as="geometry" />
        </mxCell>
        <mxCell id="SE2F5Cg17-JC0wOhKJ6e-9" value="Monitor" style="rounded=1;whiteSpace=wrap;html=1;fillColor=#dae8fc;strokeColor=#6c8ebf;" parent="1" vertex="1">
          <mxGeometry x="-170" y="-560" width="120" height="60" as="geometry" />
        </mxCell>
        <mxCell id="SE2F5Cg17-JC0wOhKJ6e-10" value="Scoreboard" style="rounded=1;whiteSpace=wrap;html=1;fillColor=#dae8fc;strokeColor=#6c8ebf;" parent="1" vertex="1">
          <mxGeometry x="-170" y="-660" width="120" height="60" as="geometry" />
        </mxCell>
        <mxCell id="SE2F5Cg17-JC0wOhKJ6e-11" value="DUT" style="rounded=1;whiteSpace=wrap;html=1;" parent="1" vertex="1">
          <mxGeometry x="-330" y="-470" width="120" height="60" as="geometry" />
        </mxCell>
        <mxCell id="SE2F5Cg17-JC0wOhKJ6e-22" value="Interface" style="text;html=1;align=center;verticalAlign=middle;whiteSpace=wrap;rounded=0;" parent="1" vertex="1">
          <mxGeometry x="-300" y="-400.4" width="60" height="20" as="geometry" />
        </mxCell>
        <mxCell id="SE2F5Cg17-JC0wOhKJ6e-23" value="" style="endArrow=classic;html=1;rounded=0;exitX=0.583;exitY=1.015;exitDx=0;exitDy=0;exitPerimeter=0;entryX=0.596;entryY=-0.003;entryDx=0;entryDy=0;entryPerimeter=0;" parent="1" target="SE2F5Cg17-JC0wOhKJ6e-19" edge="1">
          <mxGeometry width="50" height="50" relative="1" as="geometry">
            <mxPoint x="-400.00000000000006" y="-500" as="sourcePoint" />
            <mxPoint x="-370.75999999999993" y="-460.39999999999986" as="targetPoint" />
            <Array as="points">
              <mxPoint x="-400" y="-440" />
            </Array>
          </mxGeometry>
        </mxCell>
        <mxCell id="SE2F5Cg17-JC0wOhKJ6e-24" value="" style="endArrow=classic;html=1;rounded=0;exitX=0.343;exitY=1.015;exitDx=0;exitDy=0;exitPerimeter=0;entryX=0.406;entryY=-0.001;entryDx=0;entryDy=0;entryPerimeter=0;" parent="1" source="SE2F5Cg17-JC0wOhKJ6e-6" target="SE2F5Cg17-JC0wOhKJ6e-19" edge="1">
          <mxGeometry width="50" height="50" relative="1" as="geometry">
            <mxPoint x="-380" y="-400" as="sourcePoint" />
            <mxPoint x="-330" y="-450" as="targetPoint" />
            <Array as="points">
              <mxPoint x="-420" y="-420" />
            </Array>
          </mxGeometry>
        </mxCell>
        <mxCell id="SE2F5Cg17-JC0wOhKJ6e-27" value="Clock" style="rounded=0;whiteSpace=wrap;html=1;" parent="1" vertex="1">
          <mxGeometry x="-450" y="-360" width="70" height="40" as="geometry" />
        </mxCell>
        <mxCell id="SE2F5Cg17-JC0wOhKJ6e-29" value="" style="endArrow=classic;html=1;rounded=0;exitX=0.004;exitY=0.405;exitDx=0;exitDy=0;exitPerimeter=0;entryX=0.577;entryY=0.995;entryDx=0;entryDy=0;entryPerimeter=0;" parent="1" source="SE2F5Cg17-JC0wOhKJ6e-20" target="SE2F5Cg17-JC0wOhKJ6e-9" edge="1">
          <mxGeometry width="50" height="50" relative="1" as="geometry">
            <mxPoint x="-135" y="-415" as="sourcePoint" />
            <mxPoint x="-85" y="-465" as="targetPoint" />
            <Array as="points">
              <mxPoint x="-100" y="-420" />
            </Array>
          </mxGeometry>
        </mxCell>
        <mxCell id="SE2F5Cg17-JC0wOhKJ6e-30" value="" style="endArrow=classic;html=1;rounded=0;exitX=0;exitY=0;exitDx=60;exitDy=20;exitPerimeter=0;entryX=0;entryY=0.5;entryDx=0;entryDy=0;" parent="1" source="SE2F5Cg17-JC0wOhKJ6e-19" target="SE2F5Cg17-JC0wOhKJ6e-11" edge="1">
          <mxGeometry width="50" height="50" relative="1" as="geometry">
            <mxPoint x="-330" y="-450" as="sourcePoint" />
            <mxPoint x="-280" y="-500" as="targetPoint" />
          </mxGeometry>
        </mxCell>
        <mxCell id="SE2F5Cg17-JC0wOhKJ6e-31" value="" style="endArrow=classic;html=1;rounded=0;exitX=0;exitY=0;exitDx=60;exitDy=20;exitPerimeter=0;entryX=0;entryY=0.5;entryDx=0;entryDy=0;" parent="1" edge="1">
          <mxGeometry width="50" height="50" relative="1" as="geometry">
            <mxPoint x="-340" y="-420" as="sourcePoint" />
            <mxPoint x="-330" y="-420" as="targetPoint" />
          </mxGeometry>
        </mxCell>
        <mxCell id="SE2F5Cg17-JC0wOhKJ6e-32" value="" style="endArrow=classic;html=1;rounded=0;exitX=0;exitY=0;exitDx=60;exitDy=20;exitPerimeter=0;entryX=0;entryY=0.5;entryDx=0;entryDy=0;" parent="1" edge="1">
          <mxGeometry width="50" height="50" relative="1" as="geometry">
            <mxPoint x="-210" y="-420" as="sourcePoint" />
            <mxPoint x="-200" y="-420" as="targetPoint" />
          </mxGeometry>
        </mxCell>
        <mxCell id="SE2F5Cg17-JC0wOhKJ6e-33" value="" style="endArrow=classic;html=1;rounded=0;exitX=0;exitY=0;exitDx=60;exitDy=20;exitPerimeter=0;entryX=0;entryY=0.5;entryDx=0;entryDy=0;" parent="1" edge="1">
          <mxGeometry width="50" height="50" relative="1" as="geometry">
            <mxPoint x="-210" y="-440.06" as="sourcePoint" />
            <mxPoint x="-200" y="-440.06" as="targetPoint" />
          </mxGeometry>
        </mxCell>
        <mxCell id="SE2F5Cg17-JC0wOhKJ6e-35" value="" style="endArrow=classic;html=1;rounded=0;exitX=0.003;exitY=0.595;exitDx=0;exitDy=0;exitPerimeter=0;entryX=0.417;entryY=0.978;entryDx=0;entryDy=0;entryPerimeter=0;" parent="1" source="SE2F5Cg17-JC0wOhKJ6e-20" target="SE2F5Cg17-JC0wOhKJ6e-9" edge="1">
          <mxGeometry width="50" height="50" relative="1" as="geometry">
            <mxPoint x="-180" y="-430" as="sourcePoint" />
            <mxPoint x="-130" y="-480" as="targetPoint" />
            <Array as="points">
              <mxPoint x="-120" y="-440" />
            </Array>
          </mxGeometry>
        </mxCell>
        <mxCell id="SE2F5Cg17-JC0wOhKJ6e-36" value="" style="endArrow=classic;html=1;rounded=0;exitX=0.5;exitY=0;exitDx=0;exitDy=0;entryX=0.5;entryY=1;entryDx=0;entryDy=0;" parent="1" source="SE2F5Cg17-JC0wOhKJ6e-9" target="SE2F5Cg17-JC0wOhKJ6e-10" edge="1">
          <mxGeometry width="50" height="50" relative="1" as="geometry">
            <mxPoint x="-130" y="-550" as="sourcePoint" />
            <mxPoint x="-80" y="-600" as="targetPoint" />
          </mxGeometry>
        </mxCell>
        <mxCell id="SE2F5Cg17-JC0wOhKJ6e-37" value="mailbox #(histogram[600])" style="text;html=1;align=center;verticalAlign=middle;whiteSpace=wrap;rounded=0;" parent="1" vertex="1">
          <mxGeometry x="-80" y="-590" width="60" height="30" as="geometry" />
        </mxCell>
        <mxCell id="SE2F5Cg17-JC0wOhKJ6e-39" value="Functional Coverage" style="rounded=1;whiteSpace=wrap;html=1;" parent="1" vertex="1">
          <mxGeometry x="-300" y="-780" width="120" height="60" as="geometry" />
        </mxCell>
        <mxCell id="SE2F5Cg17-JC0wOhKJ6e-42" value="" style="endArrow=classic;html=1;rounded=0;exitX=0;exitY=0.5;exitDx=0;exitDy=0;" parent="1" source="SE2F5Cg17-JC0wOhKJ6e-4" edge="1">
          <mxGeometry width="50" height="50" relative="1" as="geometry">
            <mxPoint x="-570" y="-605" as="sourcePoint" />
            <mxPoint x="-520" y="-630" as="targetPoint" />
          </mxGeometry>
        </mxCell>
        <mxCell id="SE2F5Cg17-JC0wOhKJ6e-43" value="Expected Result" style="rounded=1;whiteSpace=wrap;html=1;" parent="1" vertex="1">
          <mxGeometry x="-640" y="-660" width="120" height="60" as="geometry" />
        </mxCell>
        <mxCell id="SE2F5Cg17-JC0wOhKJ6e-44" value="system run" style="text;html=1;align=center;verticalAlign=middle;whiteSpace=wrap;rounded=0;" parent="1" vertex="1">
          <mxGeometry x="-510" y="-660" width="60" height="30" as="geometry" />
        </mxCell>
        <mxCell id="SE2F5Cg17-JC0wOhKJ6e-45" value="" style="endArrow=classic;html=1;rounded=0;exitX=0.5;exitY=0;exitDx=0;exitDy=0;entryX=0.5;entryY=0;entryDx=0;entryDy=0;" parent="1" source="SE2F5Cg17-JC0wOhKJ6e-43" target="SE2F5Cg17-JC0wOhKJ6e-10" edge="1">
          <mxGeometry width="50" height="50" relative="1" as="geometry">
            <mxPoint x="-560" y="-690" as="sourcePoint" />
            <mxPoint x="-570" y="-840" as="targetPoint" />
            <Array as="points">
              <mxPoint x="-580" y="-810" />
              <mxPoint x="-110" y="-810" />
            </Array>
          </mxGeometry>
        </mxCell>
        <mxCell id="SE2F5Cg17-JC0wOhKJ6e-46" value="" style="endArrow=classic;html=1;rounded=0;exitX=0;exitY=0.75;exitDx=0;exitDy=0;entryX=1;entryY=0.75;entryDx=0;entryDy=0;" parent="1" source="SE2F5Cg17-JC0wOhKJ6e-10" target="SE2F5Cg17-JC0wOhKJ6e-4" edge="1">
          <mxGeometry width="50" height="50" relative="1" as="geometry">
            <mxPoint x="-400" y="-620" as="sourcePoint" />
            <mxPoint x="-350" y="-670" as="targetPoint" />
          </mxGeometry>
        </mxCell>
        <mxCell id="SE2F5Cg17-JC0wOhKJ6e-47" value="event" style="text;html=1;align=center;verticalAlign=middle;whiteSpace=wrap;rounded=0;" parent="1" vertex="1">
          <mxGeometry x="-290" y="-620" width="60" height="30" as="geometry" />
        </mxCell>
        <mxCell id="SE2F5Cg17-JC0wOhKJ6e-48" value="" style="endArrow=classic;html=1;rounded=0;exitX=0.25;exitY=0;exitDx=0;exitDy=0;entryX=0.25;entryY=1;entryDx=0;entryDy=0;" parent="1" source="SE2F5Cg17-JC0wOhKJ6e-9" target="SE2F5Cg17-JC0wOhKJ6e-10" edge="1">
          <mxGeometry width="50" height="50" relative="1" as="geometry">
            <mxPoint x="-350" y="-590" as="sourcePoint" />
            <mxPoint x="-300" y="-640" as="targetPoint" />
          </mxGeometry>
        </mxCell>
        <mxCell id="SE2F5Cg17-JC0wOhKJ6e-49" value="event" style="text;html=1;align=center;verticalAlign=middle;whiteSpace=wrap;rounded=0;" parent="1" vertex="1">
          <mxGeometry x="-200" y="-590" width="60" height="30" as="geometry" />
        </mxCell>
        <mxCell id="SE2F5Cg17-JC0wOhKJ6e-51" value="Environment" style="text;html=1;align=center;verticalAlign=middle;whiteSpace=wrap;rounded=0;" parent="1" vertex="1">
          <mxGeometry x="-70" y="-700" width="70" height="30" as="geometry" />
        </mxCell>
        <mxCell id="SE2F5Cg17-JC0wOhKJ6e-56" value="Top" style="text;html=1;align=center;verticalAlign=middle;whiteSpace=wrap;rounded=0;" parent="1" vertex="1">
          <mxGeometry x="-30" y="-840" width="60" height="30" as="geometry" />
        </mxCell>
        <mxCell id="WpvM9LgLBfSgWj5CzlEj-1" value="set up count" style="rounded=1;whiteSpace=wrap;html=1;fillColor=#dae8fc;strokeColor=#6c8ebf;" vertex="1" parent="1">
          <mxGeometry x="510" y="-820" width="120" height="60" as="geometry" />
        </mxCell>
        <mxCell id="WpvM9LgLBfSgWj5CzlEj-2" value="" style="endArrow=classic;html=1;rounded=0;entryX=0.5;entryY=0;entryDx=0;entryDy=0;" edge="1" parent="1" target="WpvM9LgLBfSgWj5CzlEj-1">
          <mxGeometry width="50" height="50" relative="1" as="geometry">
            <mxPoint x="570" y="-850" as="sourcePoint" />
            <mxPoint x="730" y="-700" as="targetPoint" />
          </mxGeometry>
        </mxCell>
        <mxCell id="WpvM9LgLBfSgWj5CzlEj-3" value="run command" style="text;html=1;align=center;verticalAlign=middle;whiteSpace=wrap;rounded=0;" vertex="1" parent="1">
          <mxGeometry x="540" y="-880" width="60" height="30" as="geometry" />
        </mxCell>
        <mxCell id="WpvM9LgLBfSgWj5CzlEj-4" value="reset" style="rounded=1;whiteSpace=wrap;html=1;fillColor=#dae8fc;strokeColor=#6c8ebf;" vertex="1" parent="1">
          <mxGeometry x="510" y="-720" width="120" height="60" as="geometry" />
        </mxCell>
        <mxCell id="WpvM9LgLBfSgWj5CzlEj-5" value="" style="endArrow=classic;html=1;rounded=0;exitX=0.5;exitY=1;exitDx=0;exitDy=0;entryX=0.5;entryY=0;entryDx=0;entryDy=0;" edge="1" parent="1" source="WpvM9LgLBfSgWj5CzlEj-1" target="WpvM9LgLBfSgWj5CzlEj-4">
          <mxGeometry width="50" height="50" relative="1" as="geometry">
            <mxPoint x="620" y="-680" as="sourcePoint" />
            <mxPoint x="670" y="-730" as="targetPoint" />
          </mxGeometry>
        </mxCell>
        <mxCell id="WpvM9LgLBfSgWj5CzlEj-7" value="generator run()&lt;div&gt;driver run()&lt;/div&gt;&lt;div&gt;monitor run()&lt;/div&gt;&lt;div&gt;scoreboard run()&lt;/div&gt;" style="rounded=1;whiteSpace=wrap;html=1;dashed=1;" vertex="1" parent="1">
          <mxGeometry x="800" y="-750" width="120" height="120" as="geometry" />
        </mxCell>
        <mxCell id="WpvM9LgLBfSgWj5CzlEj-8" value="" style="endArrow=classic;html=1;rounded=0;exitX=0.5;exitY=1;exitDx=0;exitDy=0;entryX=0.5;entryY=1;entryDx=0;entryDy=0;" edge="1" parent="1" source="WpvM9LgLBfSgWj5CzlEj-4" target="WpvM9LgLBfSgWj5CzlEj-9">
          <mxGeometry width="50" height="50" relative="1" as="geometry">
            <mxPoint x="590" y="-730" as="sourcePoint" />
            <mxPoint x="700" y="-640" as="targetPoint" />
            <Array as="points">
              <mxPoint x="570" y="-640" />
              <mxPoint x="730" y="-640" />
            </Array>
          </mxGeometry>
        </mxCell>
        <mxCell id="WpvM9LgLBfSgWj5CzlEj-9" value="run" style="rounded=1;whiteSpace=wrap;html=1;fillColor=#dae8fc;strokeColor=#6c8ebf;" vertex="1" parent="1">
          <mxGeometry x="670" y="-720" width="120" height="60" as="geometry" />
        </mxCell>
        <mxCell id="WpvM9LgLBfSgWj5CzlEj-10" value="finish" style="rounded=1;whiteSpace=wrap;html=1;fillColor=#dae8fc;strokeColor=#6c8ebf;" vertex="1" parent="1">
          <mxGeometry x="670" y="-820" width="120" height="60" as="geometry" />
        </mxCell>
        <mxCell id="WpvM9LgLBfSgWj5CzlEj-11" value="" style="endArrow=classic;html=1;rounded=0;exitX=0.5;exitY=0;exitDx=0;exitDy=0;entryX=0.5;entryY=1;entryDx=0;entryDy=0;" edge="1" parent="1" source="WpvM9LgLBfSgWj5CzlEj-9" target="WpvM9LgLBfSgWj5CzlEj-10">
          <mxGeometry width="50" height="50" relative="1" as="geometry">
            <mxPoint x="590" y="-730" as="sourcePoint" />
            <mxPoint x="640" y="-780" as="targetPoint" />
          </mxGeometry>
        </mxCell>
        <mxCell id="WpvM9LgLBfSgWj5CzlEj-12" value="functional report&lt;div&gt;compare report&lt;/div&gt;" style="rounded=1;whiteSpace=wrap;html=1;dashed=1;" vertex="1" parent="1">
          <mxGeometry x="800" y="-815" width="120" height="50" as="geometry" />
        </mxCell>
      </root>
    </mxGraphModel>
  </diagram>
</mxfile>
